<?xml version="1.0" encoding="UTF-8"?>
<!DOCTYPE svg PUBLIC "-//W3C//DTD SVG 1.1//EN" "http://www.w3.org/Graphics/SVG/1.1/DTD/svg11.dtd">
<svg xmlns="http://www.w3.org/2000/svg" version="1.1" width="265px" height="261px" style="shape-rendering:geometricPrecision; text-rendering:geometricPrecision; image-rendering:optimizeQuality; fill-rule:evenodd; clip-rule:evenodd" xmlns:xlink="http://www.w3.org/1999/xlink">
<g><path style="opacity:0.565" fill="#d15269" d="M 109.5,21.5 C 125.167,21.5 140.833,21.5 156.5,21.5C 156.5,21.8333 156.5,22.1667 156.5,22.5C 148.5,22.5 140.5,22.5 132.5,22.5C 125.833,22.5 119.167,22.5 112.5,22.5C 111.391,22.5569 110.391,22.8902 109.5,23.5C 109.5,22.8333 109.5,22.1667 109.5,21.5 Z"/></g>
<g><path style="opacity:1" fill="#fe3052" d="M 110.5,31.5 C 110.5,30.5 110.5,29.5 110.5,28.5C 112.104,27.713 112.771,26.3797 112.5,24.5C 119.167,24.5 125.833,24.5 132.5,24.5C 132.831,97.4043 132.498,170.238 131.5,243C 124.918,243.81 118.418,243.643 112,242.5C 111.833,171.999 111.333,101.665 110.5,31.5 Z"/></g>
<g><path style="opacity:1" fill="#fd4561" d="M 112.5,22.5 C 119.167,22.5 125.833,22.5 132.5,22.5C 138.987,23.3283 145.654,23.8283 152.5,24C 153.849,24.7724 154.682,25.9391 155,27.5C 155.5,99.4992 155.667,171.499 155.5,243.5C 147.648,243.175 139.982,243.508 132.5,244.5C 125.08,244.797 117.746,244.464 110.5,243.5C 110.5,172.833 110.5,102.167 110.5,31.5C 111.333,101.665 111.833,171.999 112,242.5C 118.418,243.643 124.918,243.81 131.5,243C 132.498,170.238 132.831,97.4043 132.5,24.5C 125.833,24.5 119.167,24.5 112.5,24.5C 112.771,26.3797 112.104,27.713 110.5,28.5C 110.253,26.1417 110.919,24.1417 112.5,22.5 Z"/></g>
<g><path style="opacity:0.911" fill="#ea4e6b" d="M 132.5,22.5 C 140.5,22.5 148.5,22.5 156.5,22.5C 156.5,96.5 156.5,170.5 156.5,244.5C 148.5,244.5 140.5,244.5 132.5,244.5C 139.982,243.508 147.648,243.175 155.5,243.5C 155.667,171.499 155.5,99.4992 155,27.5C 154.682,25.9391 153.849,24.7724 152.5,24C 145.654,23.8283 138.987,23.3283 132.5,22.5 Z"/></g>
<g><path style="opacity:0.954" fill="#df405a" d="M 112.5,22.5 C 110.919,24.1417 110.253,26.1417 110.5,28.5C 110.5,29.5 110.5,30.5 110.5,31.5C 110.5,102.167 110.5,172.833 110.5,243.5C 110.167,243.5 109.833,243.5 109.5,243.5C 109.5,170.167 109.5,96.8333 109.5,23.5C 110.391,22.8902 111.391,22.5569 112.5,22.5 Z"/></g>
<g><path style="opacity:1" fill="#fed21c" d="M 41.5,100.5 C 49.5,100.5 57.5,100.5 65.5,100.5C 66.791,100.263 67.791,100.596 68.5,101.5C 68.5,149.167 68.5,196.833 68.5,244.5C 61.5,244.5 54.5,244.5 47.5,244.5C 46.3398,243.735 45.3398,242.735 44.5,241.5C 45.8189,196.693 45.8189,152.193 44.5,108C 43.4954,106.493 42.162,105.327 40.5,104.5C 42.2744,103.813 43.9411,102.98 45.5,102C 43.9419,101.79 42.6085,101.29 41.5,100.5 Z"/></g>
<g><path style="opacity:1" fill="#fdcd03" d="M 41.5,100.5 C 42.6085,101.29 43.9419,101.79 45.5,102C 43.9411,102.98 42.2744,103.813 40.5,104.5C 42.162,105.327 43.4954,106.493 44.5,108C 45.8189,152.193 45.8189,196.693 44.5,241.5C 45.3398,242.735 46.3398,243.735 47.5,244.5C 39.1667,244.5 30.8333,244.5 22.5,244.5C 22.5,196.5 22.5,148.5 22.5,100.5C 28.8333,100.5 35.1667,100.5 41.5,100.5 Z"/></g>
<g><path style="opacity:0.316" fill="#df6d84" d="M 156.5,21.5 C 157.499,95.9981 157.833,170.665 157.5,245.5C 141.833,245.5 126.167,245.5 110.5,245.5C 110.167,244.833 109.833,244.167 109.5,243.5C 109.833,243.5 110.167,243.5 110.5,243.5C 117.746,244.464 125.08,244.797 132.5,244.5C 140.5,244.5 148.5,244.5 156.5,244.5C 156.5,170.5 156.5,96.5 156.5,22.5C 156.5,22.1667 156.5,21.8333 156.5,21.5 Z"/></g>
<g><path style="opacity:0.385" fill="#d06a78" d="M 109.5,21.5 C 109.5,22.1667 109.5,22.8333 109.5,23.5C 109.5,96.8333 109.5,170.167 109.5,243.5C 109.833,244.167 110.167,244.833 110.5,245.5C 109.167,208.506 108.5,171.173 108.5,133.5C 108.5,95.9985 108.833,58.6652 109.5,21.5 Z"/></g>
<g><path style="opacity:0.831" fill="#f4dd6c" d="M 65.5,99.5 C 65.5,99.8333 65.5,100.167 65.5,100.5C 57.5,100.5 49.5,100.5 41.5,100.5C 35.1667,100.5 28.8333,100.5 22.5,100.5C 22.5,148.5 22.5,196.5 22.5,244.5C 30.8333,244.5 39.1667,244.5 47.5,244.5C 54.5,244.5 61.5,244.5 68.5,244.5C 68.5,196.833 68.5,149.167 68.5,101.5C 69.4988,149.33 69.8322,197.33 69.5,245.5C 53.9696,246.432 38.3029,246.599 22.5,246C 21.7069,244.915 21.0402,243.748 20.5,242.5C 20.3497,194.951 20.5164,147.284 21,99.5C 35.9312,98.1698 50.7645,98.1698 65.5,99.5 Z"/></g>
<g><path style="opacity:1" fill="#6fb53b" d="M 219.5,149.5 C 227.196,149.169 234.862,149.503 242.5,150.5C 243.659,180.791 243.825,211.125 243,241.5C 242.097,242.701 240.931,243.535 239.5,244C 232.842,244.5 226.175,244.666 219.5,244.5C 219.563,212.766 219.563,181.099 219.5,149.5 Z"/></g>
<g><path style="opacity:0.212" fill="#f5e18f" d="M 69.5,245.5 C 69.8322,197.33 69.4988,149.33 68.5,101.5C 67.791,100.596 66.791,100.263 65.5,100.5C 65.5,100.167 65.5,99.8333 65.5,99.5C 66.8016,98.1931 68.135,98.1931 69.5,99.5C 70.8311,148.332 70.8311,196.998 69.5,245.5 Z"/></g>
<g><path style="opacity:0.817" fill="#69a33d" d="M 219.5,148.5 C 219.5,148.833 219.5,149.167 219.5,149.5C 212.167,149.5 204.833,149.5 197.5,149.5C 197.5,180.833 197.5,212.167 197.5,243.5C 201.042,243.187 204.375,243.521 207.5,244.5C 203.833,244.5 200.167,244.5 196.5,244.5C 196.5,212.5 196.5,180.5 196.5,148.5C 204.167,148.5 211.833,148.5 219.5,148.5 Z"/></g>
<g><path style="opacity:1" fill="#5fa929" d="M 219.5,149.5 C 219.563,181.099 219.563,212.766 219.5,244.5C 215.5,244.5 211.5,244.5 207.5,244.5C 204.375,243.521 201.042,243.187 197.5,243.5C 197.5,212.167 197.5,180.833 197.5,149.5C 204.833,149.5 212.167,149.5 219.5,149.5 Z"/></g>
<g><path style="opacity:1" fill="#5eac22" d="M 199.5,151.5 C 205.262,151.149 210.928,151.649 216.5,153C 219.267,155.899 218.6,157.899 214.5,159C 215.416,159.374 216.25,159.874 217,160.5C 217.833,186.84 217.667,213.173 216.5,239.5C 214.538,240.634 212.538,240.634 210.5,239.5C 209.353,239.818 208.519,240.484 208,241.5C 206.931,219.18 206.264,196.847 206,174.5C 205.667,196.167 205.333,217.833 205,239.5C 204.121,242.346 202.454,243.013 200,241.5C 199.833,238.667 199.667,235.833 199.5,233C 200.818,205.826 200.818,178.66 199.5,151.5 Z"/></g>
<g><path style="opacity:0.188" fill="#a4d088" d="M 244.5,148.5 C 236.167,148.5 227.833,148.5 219.5,148.5C 211.833,148.5 204.167,148.5 196.5,148.5C 196.5,180.5 196.5,212.5 196.5,244.5C 196.5,244.833 196.5,245.167 196.5,245.5C 195.502,213.004 195.168,180.338 195.5,147.5C 212.009,147.17 228.342,147.504 244.5,148.5 Z"/></g>
<g><path style="opacity:0.608" fill="#95bf72" d="M 219.5,149.5 C 219.5,149.167 219.5,148.833 219.5,148.5C 227.833,148.5 236.167,148.5 244.5,148.5C 245.795,180.817 245.795,213.15 244.5,245.5C 228.5,245.5 212.5,245.5 196.5,245.5C 196.5,245.167 196.5,244.833 196.5,244.5C 200.167,244.5 203.833,244.5 207.5,244.5C 211.5,244.5 215.5,244.5 219.5,244.5C 226.175,244.666 232.842,244.5 239.5,244C 240.931,243.535 242.097,242.701 243,241.5C 243.825,211.125 243.659,180.791 242.5,150.5C 234.862,149.503 227.196,149.169 219.5,149.5 Z"/></g>
</svg>
