<?xml version="1.0" encoding="UTF-8"?>
<svg version="1.1" xmlns="http://www.w3.org/2000/svg" width="512" height="512">
<path d="M0 0 C168.96 0 337.92 0 512 0 C512 168.96 512 337.92 512 512 C343.04 512 174.08 512 0 512 C0 343.04 0 174.08 0 0 Z " fill="#F1F1F1" transform="translate(0,0)"/>
<path d="M0 0 C0.33 0 0.66 0 1 0 C1 133.98 1 267.96 1 406 C30.04 406 59.08 406 89 406 C89 272.02 89 138.04 89 0 C89.33 0 89.66 0 90 0 C90.33 107.58 90.66 215.16 91 326 C114.02126319 303.48766939 114.02126319 303.48766939 136 280 C139.2109375 276.54296875 139.2109375 276.54296875 140.78222656 274.8815918 C142.46146699 273.09553274 144.10903349 271.28292898 145.7578125 269.46875 C147.7078689 267.33598354 149.625756 265.44919527 151.8046875 263.53125 C158.53793017 257.07766278 158.77771155 250.79963135 159 241.875 C159.01544702 238.65906734 159.00571629 235.44911211 158.9375 232.23388672 C159 230 159 230 160 229 C161.37410019 228.98857258 162.74877531 229.03458839 164.12109375 229.10546875 C174.0808119 229.52174687 174.0808119 229.52174687 183.05859375 225.93359375 C185.16329771 223.38168456 187.00467392 220.78916769 188.73925781 217.97363281 C190.64829594 214.98512309 192.81397945 212.20318773 194.95556641 209.37890625 C224.7270172 169.91046862 250.95465249 127.71042439 274 84 C274.60585938 82.8553125 275.21171875 81.710625 275.8359375 80.53125 C284.43989696 64.25391805 292.54281308 47.8417771 300 31 C300.33 31 300.66 31 301 31 C301 172.24 301 313.48 301 459 C172.63 459 44.26 459 -88 459 C-85.50190266 456.50190266 -83.87902216 455.21870373 -80.88671875 453.57421875 C-80.06236328 453.1148291 -79.23800781 452.65543945 -78.38867188 452.18212891 C-77.0515918 451.4422876 -77.0515918 451.4422876 -75.6875 450.6875 C-60.48587418 442.13198291 -45.90564136 432.64052167 -31.375 423 C-30.62605469 422.50387207 -29.87710938 422.00774414 -29.10546875 421.49658203 C-27.50452211 420.42626741 -25.92978205 419.31601334 -24.37929153 418.17383003 C-21.75748522 416.35354448 -19.07875942 415.15141992 -16.14423752 413.90620232 C-9.98910484 410.96312717 -4.89267734 407.71432584 -1 402 C2.63107071 390.68511624 1.63597366 378.12608822 1.40585542 366.38879943 C1.33142482 361.46586843 1.37333416 356.54371014 1.40071106 351.6204834 C1.43234056 343.10287815 1.39118807 334.58815806 1.29979706 326.07101822 C1.16777544 313.7574098 1.14676122 301.44555163 1.1523445 289.13132773 C1.15841135 269.15054617 1.07541242 249.17117553 0.93603516 229.19091797 C0.80088061 209.78854023 0.70790144 190.38671168 0.67138672 170.98388672 C0.66798551 169.18824558 0.66798551 169.18824558 0.66451558 167.35632886 C0.65339904 161.35052217 0.64310896 155.34471441 0.63322973 149.33890557 C0.55027534 99.55846119 0.32262186 49.77942855 0 0 Z " fill="#E6E6E7" transform="translate(211,53)"/>
<path d="M0 0 C29.04 0 58.08 0 88 0 C88 133.98 88 267.96 88 406 C58.96 406 29.92 406 0 406 C0 272.02 0 138.04 0 0 Z " fill="#FF4764" transform="translate(212,53)"/>
<path d="M0 0 C29.04 0 58.08 0 88 0 C88 87.45 88 174.9 88 265 C58.96 265 29.92 265 0 265 C0 177.55 0 90.1 0 0 Z " fill="#FED31C" transform="translate(53,194)"/>
<path d="M0 0 C14.52 0 29.04 0 44 0 C44 133.98 44 267.96 44 406 C29.48 406 14.96 406 0 406 C0 272.02 0 138.04 0 0 Z " fill="#FF3051" transform="translate(212,53)"/>
<path d="M0 0 C29.04 0 58.08 0 88 0 C88 58.41 88 116.82 88 177 C58.96 177 29.92 177 0 177 C0 118.59 0 60.18 0 0 Z " fill="#70B53C" transform="translate(371,282)"/>
<path d="M0 0 C14.52 0 29.04 0 44 0 C44 87.12 44 174.24 44 264 C29.48 264 14.96 264 0 264 C0 176.88 0 89.76 0 0 Z " fill="#FFCD00" transform="translate(53,195)"/>
<path d="M0 0 C14.19 0 28.38 0 43 0 C43 58.08 43 116.16 43 176 C28.81 176 14.62 176 0 176 C0 117.92 0 59.84 0 0 Z " fill="#5EAC24" transform="translate(371,283)"/>
<path d="M0 0 C0.33 0 0.66 0 1 0 C1 8.91 1 17.82 1 27 C-7.91 27 -16.82 27 -26 27 C-24.68 26.34 -23.36 25.68 -22 25 C-11.36153741 19.40481574 -4.99653325 13.89995129 -0.625 2.375 C-0.315625 1.199375 -0.315625 1.199375 0 0 Z " fill="#000000" transform="translate(511,485)"/>
<path d="M0 0 C0.66 1.32 1.32 2.64 2 4 C7.59518426 14.63846259 13.10004871 21.00346675 24.625 25.375 C25.800625 25.684375 25.800625 25.684375 27 26 C27 26.33 27 26.66 27 27 C18.09 27 9.18 27 0 27 C0 18.09 0 9.18 0 0 Z " fill="#000000" transform="translate(0,485)"/>
<path d="M0 0 C8.91 0 17.82 0 27 0 C27 8.91 27 17.82 27 27 C26.34 25.68 25.68 24.36 25 23 C19.50196468 12.3897564 14.76054673 7.32414533 4 2 C2.68 1.34 1.36 0.68 0 0 Z " fill="#000000" transform="translate(485,0)"/>
<path d="M0 0 C8.91 0 17.82 0 27 0 C25.02 0.99 25.02 0.99 23 2 C12.3897564 7.49803532 7.32414533 12.23945327 2 23 C1.34 24.32 0.68 25.64 0 27 C0 18.09 0 9.18 0 0 Z " fill="#000000" transform="translate(0,0)"/>
</svg>
